<svg width="512" height="512" viewBox="0 0 512 512" fill="none" xmlns="http://www.w3.org/2000/svg">
<path fill-rule="evenodd" clip-rule="evenodd" d="M0 256.008C0 114.631 114.63 0.0150368 256.022 0.0150368L255.977 0C397.37 0 512 114.616 512 255.992V256.91C511.985 257.616 511.985 258.323 511.985 259.029C511.338 292.705 491.702 321.719 463.33 335.806C451.603 341.624 438.402 344.901 424.419 344.901H423.201C421.066 344.871 418.946 344.766 416.856 344.586C401.7 343.293 387.657 338.151 375.704 330.123C373.915 328.77 372.096 327.447 370.261 326.154C337.92 303.454 298.527 290.119 256.007 290.119C213.487 290.119 174.095 303.439 141.754 326.139C139.904 327.447 138.085 328.77 136.281 330.123C124.358 338.136 110.345 343.278 95.2341 344.586C93.3697 344.736 91.4903 344.841 89.5958 344.886C88.9347 344.916 88.2586 344.916 87.5825 344.916C73.5996 344.916 60.3971 341.639 48.6695 335.821C20.2978 321.719 0.66148 292.705 0.0149583 259.044C0 258.341 0 257.638 0 256.935V256.008ZM418.314 277.355C430.328 277.355 440.221 268.23 441.424 256.534L441.499 256.549C441.574 255.767 441.619 254.955 441.619 254.143C441.619 253.512 441.589 252.881 441.544 252.264C441.529 222.648 434.583 194.655 422.224 169.82C396.618 118.39 347.829 80.5201 289.521 69.9214C278.681 67.9369 267.525 66.9146 256.128 66.9146C232.567 66.9146 210.044 71.3045 189.326 79.3023C189.295 79.3174 189.262 79.3287 189.228 79.3399C189.194 79.3512 189.16 79.3625 189.13 79.3775C145.903 96.125 110.525 128.613 90.0318 169.805C77.6577 194.64 70.7114 222.648 70.7114 252.279V254.579C71.0271 267.132 81.3113 277.22 93.9411 277.22C98.7674 277.22 103.263 275.747 106.977 273.221C107.578 272.83 108.149 272.394 108.706 271.928C128.116 257.496 149.722 245.845 172.922 237.561C198.903 228.286 226.869 223.234 256.038 223.234C285.206 223.234 313.187 228.286 339.153 237.561C362.413 245.86 384.079 257.556 403.535 272.048C404.091 272.514 404.662 272.935 405.249 273.341C408.977 275.867 413.473 277.355 418.314 277.355Z" fill="url(#paint0_linear_2448_805)"/>
<path d="M483.508 373.57C494.394 352.553 502.468 329.822 507.189 305.889C491.417 335.655 460.128 355.936 424.088 355.936C421.713 355.936 419.352 355.846 417.022 355.68C415.157 358.672 413.218 361.604 411.203 364.475C377.012 413.154 320.675 444.98 256.429 444.98C192.182 444.98 135.424 412.928 101.278 363.934C99.3389 361.152 97.4594 358.311 95.6702 355.425C92.4226 355.755 89.1299 355.936 85.792 355.936C52.1879 355.936 22.7036 338.301 6.1045 311.782C10.9309 333.551 18.5387 354.282 28.5373 373.57C38.8064 393.415 51.6015 411.726 66.4866 428.112C113.322 479.647 180.906 512 256.023 512C331.139 512 398.708 479.647 445.559 428.112C460.444 411.726 473.224 393.415 483.508 373.57Z" fill="#0280AF"/>
<defs>
<linearGradient id="paint0_linear_2448_805" x1="256" y1="0" x2="256" y2="695.135" gradientUnits="userSpaceOnUse">
<stop stop-color="#03BDC5"/>
<stop offset="1" stop-color="#0280AF"/>
</linearGradient>
</defs>
</svg>
